Coordinates
version=1
nRows=17
nColumns=24
inDegrees=yes

Units are S.I. units (second, meters, Newtons, ...)
Angles are in degrees.

endheader
time	pelvis_tilt	pelvis_list	pelvis_rotation	pelvis_tx	pelvis_ty	pelvis_tz	hip_flexion_r	hip_adduction_r	hip_rotation_r	knee_angle_r	ankle_angle_r	subtalar_angle_r	mtp_angle_r	hip_flexion_l	hip_adduction_l	hip_rotation_l	knee_angle_l	ankle_angle_l	subtalar_angle_l	mtp_angle_l	lumbar_extension	lumbar_bending	lumbar_rotation
      5.56000000	     -2.31747463	     -6.83751564	     -7.63734776	     -2.26329003	      0.68044883	      0.14482600	    -14.82218436	      8.66369547	      8.65510009	    -22.03200380	     17.40475818	      5.59118521	      0.00000000	     25.05212485	     -5.09721978	      7.43715543	     -5.54472909	     -2.33259841	    -22.88632443	      0.00000000	    -15.29129254	      6.64828044	      5.64239215
      5.57000000	     -1.98880858	     -5.97630887	     -7.37098849	     -2.25049930	      0.68056721	      0.14315109	    -15.15769825	      7.37223173	      7.55430467	    -23.40630805	     15.89899522	      6.75280021	      0.00000000	     25.38673700	     -3.64522539	      7.24014570	     -8.25197692	     -3.15713422	    -23.14930796	      0.00000000	    -15.12524977	      5.57899009	      5.23410240
      5.58000000	     -1.71417639	     -5.05607063	     -7.07459725	     -2.23770781	      0.68075774	      0.14154561	    -15.30612859	      6.09429770	      6.65536433	    -24.95239703	     14.03595277	      7.59663883	      0.00000000	     25.72037434	     -2.14754001	      6.98624242	    -10.87303517	     -3.76516828	    -23.43072100	      0.00000000	    -14.89644345	      4.41662426	      4.82284404
      5.59000000	     -1.43168104	     -4.15153327	     -6.75635961	     -2.22512892	      0.68111270	      0.13991807	    -15.23894726	      4.86084849	      5.75305572	    -26.79784847	     11.85306165	      8.38474061	      0.00000000	     25.95025717	     -0.67495731	      6.74154957	    -13.33854902	     -4.08837599	    -23.69595141	      0.00000000	    -14.76876942	      3.26372686	      4.45540335
      5.60000000	     -1.16055995	     -3.25729840	     -6.44067347	     -2.21271949	      0.68161748	      0.13834919	    -14.96552537	      3.68278379	      4.99580422	    -28.87844582	      9.35691270	      8.99818836	      0.00000000	     26.03925023	      0.75830055	      6.48826946	    -15.56678893	     -4.02954860	    -23.90412097	      0.00000000	    -14.68887715	      2.10431289	      4.15265308
      5.61000000	     -0.91625724	     -2.39337252	     -6.13623196	     -2.20052788	      0.68227559	      0.13688955	    -14.47092155	      2.59122234	      4.41859070	    -31.16210214	      6.59064003	      9.44710559	      0.00000000	     25.97131124	      2.11907436	      6.22093931	    -17.50093123	     -3.60227725	    -24.01704815	      0.00000000	    -14.63430671	      0.96074944	      3.92894198
      5.62000000	     -0.72537053	     -1.58006923	     -5.86507282	     -2.18872931	      0.68301187	      0.13551610	    -13.66216688	      1.58046828	      3.93440018	    -33.72663278	      3.75997677	      9.90270820	      0.00000000	     25.77021229	      3.36372234	      5.91422493	    -19.11551542	     -2.62221607	    -23.74079304	      0.00000000	    -14.63225798	     -0.12727544	      3.77124010
      5.63000000	     -0.68568353	     -0.86375345	     -5.65375173	     -2.17728051	      0.68380451	      0.13435691	    -12.48704768	      0.74673036	      3.69221778	    -36.44349265	      0.78279858	     10.14388771	      0.00000000	     25.51248641	      4.40592220	      5.47439356	    -20.35374470	     -1.27138739	    -23.16556980	      0.00000000	    -14.51316423	     -1.10858895	      3.68947244
      5.64000000	     -0.56816013	     -0.19172017	     -5.39845430	     -2.16618463	      0.68487168	      0.13302082	    -11.22497698	     -0.04488621	      3.38342636	    -39.22827339	     -2.12843795	     10.34120316	      0.00000000	     24.84491480	      5.45807988	      5.51262219	    -21.02197886	     -0.22664744	    -23.19788184	      0.00000000	    -14.58662188	     -1.97994191	      3.59939769
      5.65000000	     -0.85962171	      0.44782953	     -5.32608142	     -2.15551876	      0.68567578	      0.13228602	     -9.28553102	     -0.68409218	      3.48178650	    -42.19108475	     -4.67186226	     10.59847625	      0.00000000	     24.51235726	      6.19837686	      4.80169729	    -21.45645582	      1.49367953	    -22.03412383	      0.00000000	    -14.19899213	     -2.89448150	      3.52596186
      5.66000000	     -1.29672010	      0.92890777	     -5.10805881	     -2.14507861	      0.68645310	      0.13122537	     -7.11544496	     -1.13995243	      3.39005936	    -45.06203427	     -6.90720754	     10.89919807	      0.00000000	     24.07878666	      6.85091079	      4.62175373	    -21.46379537	      3.02792542	    -21.20834641	      0.00000000	    -13.63275666	     -3.47629031	      3.46608368
      5.67000000	     -1.39891208	      1.50579483	     -4.86282611	     -2.13486501	      0.68777721	      0.13015068	     -5.25959611	     -1.72435718	      3.26199832	    -47.79322287	     -8.44600963	     11.33561223	      0.00000000	     23.00836782	      7.64614922	      4.72014585	    -20.94743343	      4.01859867	    -20.86633807	      0.00000000	    -13.54964258	     -4.20757068	      3.16316438
      5.68000000	     -1.76514359	      1.96203415	     -4.73862375	     -2.12505093	      0.68884922	      0.12918042	     -2.98251385	     -2.15236647	      3.31383048	    -50.52369338	     -9.07816539	     12.02652524	      0.00000000	     22.13294601	      8.23012934	      4.80856172	    -20.24768531	      4.98759989	    -20.46668917	      0.00000000	    -13.18041716	     -4.74518122	      3.08380376
      5.69000000	     -2.06652656	      2.34183448	     -4.50398360	     -2.11528687	      0.69011651	      0.12814917	     -0.82498082	     -2.47745504	      3.27179172	    -52.98313260	     -8.96911901	     12.74374276	      0.00000000	     21.03320087	      8.77409720	      5.18823276	    -19.29366890	      5.67022909	    -20.23924508	      0.00000000	    -12.87822735	     -5.17090429	      2.82685719
      5.70000000	     -2.26479119	      2.65132149	     -4.24028776	     -2.10565012	      0.69155737	      0.12710878	      1.20660149	     -2.73684498	      3.18517131	    -55.21271552	     -8.05600940	     13.54346804	      0.00000000	     19.74302251	      9.25465765	      5.70293290	    -18.19786621	      6.12372311	    -20.14879987	      0.00000000	    -12.72139126	     -5.50889552	      2.50656127
      5.71000000	     -2.62030329	      2.87087511	     -4.09766341	     -2.09617532	      0.69280603	      0.12611932	      3.46092229	     -2.88975548	      3.21173879	    -57.28119062	     -6.41921000	     14.33043514	      0.00000000	     18.53197409	      9.62655203	      6.59439012	    -16.94091706	      6.09320504	    -20.78247332	      0.00000000	    -12.35905144	     -5.70939784	      2.41965407
      5.72000000	     -2.83905353	      3.00480040	     -3.88805666	     -2.08667414	      0.69417258	      0.12510949	      5.47281989	     -2.95218585	      3.12696578	    -59.00763024	     -4.15066758	     14.85221147	      0.00000000	     17.10978011	      9.93909829	      7.76979255	    -15.59392137	      5.75596639	    -21.84233091	      0.00000000	    -12.14836196	     -5.81489410	      2.22524149
